<?xml version="1.0" encoding="UTF-8"?>
<svg id="_レイヤー_1" data-name="レイヤー 1" xmlns="http://www.w3.org/2000/svg" viewBox="0 0 1920 510.26501">
  <defs>
    <style>
      .cls-1 {
        fill: #00aa2d;
      }

      .cls-2 {
        fill: #ff8c00;
      }

      .cls-3 {
        fill: #ffc300;
      }

      .cls-4 {
        fill: #005fff;
      }

      .cls-5 {
        fill: red;
      }
    </style>
  </defs>
  <g id="layer1">
    <path id="path4489" class="cls-5" d="M288.62823,290.17092c3.22874,6.07699,6.17211,12.43934,8.83085,19.08608,2.84874,6.45698,5.60261,13.00958,8.26135,19.65632,2.65874-6.83698,5.41261-13.57884,8.26135-20.22558,2.84874-6.64723,5.88748-13.00958,9.11573-19.08657l121.92444-228.18055c1.51925-2.84874,3.03874-5.12774,4.55799-6.83698,1.70925-1.70974,3.51337-2.94411,5.41261-3.70312,2.08875-.75999,4.36774-1.23511,6.83698-1.42437,2.46899-.19394,5.41261-.29079,8.83085-.29079h57.82848v411.92171h-67.5142V195.01875c0-4.93798.09488-10.3501.28413-16.23758.37975-5.88748.85462-11.86935,1.42437-17.94708l-124.48806,233.59341c-2.84874,5.31749-6.55211,9.49548-11.10985,12.53397-4.55799,2.84874-9.87548,4.27311-15.95271,4.27311h-10.5401c-6.07699,0-11.39472-1.42437-15.95271-4.27311-4.55774-3.03849-8.26111-7.21648-11.10985-12.53397l-126.19731-234.44778c.75975,6.26699,1.23462,12.43934,1.42437,18.51633.38,5.88724.56975,11.39497.56975,16.52246v266.06858h-67.5142V49.16512h57.82848c3.41849,0,6.36211.09685,8.83085.29079,2.46899.19369,4.65286.66857,6.55211,1.42437,2.089.76024,3.98799,1.99437,5.69748,3.70312,1.709,1.70974,3.32337,3.98873,4.84286,6.83698l123.06394,228.75055Z"/>
    <path id="path4491" class="cls-4" d="M777.28658,399.27627c14.81346,0,28.0123-2.46875,39.59678-7.40673,11.77447-4.93749,21.65019-11.8691,29.62667-20.79533,8.16598-8.92573,14.33834-19.75046,18.51633-32.47517,4.36824-12.72422,6.55211-26.96793,6.55211-42.73064V49.17103h76.62993v246.69738c0,24.49869-3.98824,47.1935-11.96472,68.08395-7.78648,20.7007-19.08633,38.64728-33.89929,53.84024-14.81321,15.00321-32.76004,26.77768-53.84049,35.32391-21.0802,8.35647-44.81939,12.53447-71.21732,12.53447s-50.13688-4.17799-71.21732-12.53447c-21.08045-8.54623-39.02703-20.3207-53.84049-35.32391-14.62321-15.19296-25.92331-33.13955-33.89954-53.84024-7.78648-20.89045-11.67935-43.58526-11.6796-68.08395V49.17103h76.62993v246.4125c0,15.76271,2.08924,30.00593,6.26723,42.73064,4.36824,12.72422,10.54035,23.64407,18.51682,32.76004,7.97623,8.92622,17.75658,15.85783,29.34155,20.79533,11.77447,4.93798,25.06844,7.40673,39.88165,7.40673h-.00025Z"/>
    <path id="path4493" class="cls-1" d="M1247.33076,124.09221c-2.089,4.17774-4.55749,7.12161-7.40648,8.83085-2.65899,1.70974-5.88748,2.56436-9.68597,2.56461-3.79824-.00025-8.07086-1.42412-12.81909-4.27311-4.74799-3.03849-10.35059-6.36211-16.80733-9.97035-6.45674-3.60849-14.05347-6.83673-22.78944-9.68548-8.54647-3.03874-18.70658-4.55799-30.48105-4.55799-10.63498,0-19.94095,1.3295-27.91743,3.98799-7.78648,2.46875-14.43346,5.98236-19.94095,10.5401-5.31773,4.55823-9.30597,10.06547-11.96472,16.52246-2.65874,6.26699-3.98799,13.19884-3.98799,20.79557,0,9.68548,2.65874,17.75683,7.97623,24.21382,5.50749,6.45698,12.72422,11.96447,21.65019,16.52246,8.92622,4.55774,19.08633,8.64086,30.48105,12.2491,11.39497,3.60824,22.97944,7.50161,34.75441,11.67984,11.96447,3.98824,23.64407,8.73598,35.03904,14.24346,11.39472,5.31773,21.55507,12.15447,30.48105,20.5107,8.92598,8.16648,16.04783,18.2317,21.36532,30.19617,5.50724,11.96472,8.26111,26.49306,8.26111,43.58502,0,18.61145-3.22849,36.08341-9.68548,52.41636-6.26723,16.14271-15.57271,30.2913-27.91743,42.44527-12.15447,11.96472-27.06256,21.4602-44.72451,28.48693-17.6622,6.83698-37.88778,10.25547-60.67722,10.25547-13.10421,0-26.01818-1.32925-38.7424-3.98824-12.72422-2.46875-24.97332-6.07748-36.74803-10.82522-11.58472-4.74774-22.50457-10.44522-32.76004-17.09245-10.06547-6.64723-19.08633-14.05396-27.0628-22.22019l22.21994-36.74779c2.08875-2.65899,4.55774-4.84286,7.40648-6.55211,3.03899-1.899,6.36236-2.84874,9.97084-2.84874,4.74799,0,9.87523,1.99412,15.38296,5.98236,5.50749,3.79849,11.96422,8.0716,19.3712,12.81934,7.59648,4.74774,16.42758,9.11548,26.49306,13.10372,10.25523,3.79799,22.50457,5.69748,36.74803,5.69748,21.83995,0,38.7424-5.12774,50.70712-15.38321,11.96447-10.44572,17.94683-25.35381,17.94658-44.72427.00025-10.82522-2.75362-19.65632-8.26111-26.49281-5.31773-6.83698-12.43959-12.53447-21.36532-17.09221-8.92598-4.74774-19.08657-8.73573-30.48105-11.96422-11.39472-3.22874-22.97969-6.74211-34.75416-10.5401-11.77447-3.79824-23.35944-8.35623-34.75441-13.67396-11.39448-5.31724-21.55507-12.24934-30.48105-20.79557-8.92573-8.54623-16.14271-19.1812-21.65019-31.90517-5.31724-12.91422-7.97623-28.77205-7.97623-47.57326,0-15.00321,2.94337-29.62643,8.83085-43.86989,6.07723-14.24346,14.81346-26.87305,26.20818-37.88778,11.58472-11.01473,25.73331-19.84583,42.44577-26.49306,16.71246-6.64698,35.79854-9.9706,57.25898-9.97035,24.30869-.00025,46.71888,3.79824,67.22933,11.39497,20.5107,7.59648,37.98241,18.2317,52.41587,31.90542l-18.8017,36.17804Z"/>
    <path id="path4495" class="cls-3" d="M1418.88493,461.09299h-76.91481V49.17103h76.91481v411.92196Z"/>
    <path id="path4497" class="cls-2" d="M1794.88661,363.95236c4.1775,0,7.78623,1.61412,10.82473,4.84286l30.19667,32.76004c-16.71246,20.7002-37.31803,36.55853-61.81672,47.5735-24.30894,11.01497-53.55586,16.5227-87.73978,16.5227-30.57617,0-58.11335-5.22286-82.61204-15.66808-24.30894-10.44522-45.10451-24.97381-62.38647-43.58526s-30.57592-40.83164-39.88165-66.65958c-9.11597-25.82843-13.67396-54.03024-13.67396-84.60616,0-30.95592,5.12774-59.25285,15.38296-84.89104,10.25523-25.82843,24.68893-48.04788,43.30039-66.65958,18.61145-18.6117,40.83164-33.04492,66.65958-43.30039,26.01818-10.44547,54.69536-15.66784,86.03054-15.66784,30.57617,0,57.25873,4.93798,80.04867,14.81321,22.9792,9.68548,42.63552,22.59969,58.96798,38.7424l-25.63819,35.60878c-1.51801,2.27875-3.51213,4.27287-5.98236,5.98211-2.27899,1.70974-5.50773,2.56436-9.68572,2.56461-4.36824-.00025-8.83061-1.70949-13.3886-5.12774-4.55799-3.41874-10.3501-7.12161-17.37733-11.11009-7.02673-3.98799-15.95296-7.69185-26.77768-11.11009-10.63498-3.41874-24.21382-5.12798-40.73652-5.12774-19.37145-.00025-37.22291,3.41824-53.55537,10.25523-16.1432,6.64674-30.10154,16.23758-41.87602,28.77205-11.58472,12.53422-20.70045,27.82206-27.34768,45.86401-6.45698,17.85195-9.68572,37.98265-9.68548,60.39235-.00025,23.16944,3.22849,43.77501,9.68548,61.81697,6.64674,18.04171,15.57271,33.23467,26.77793,45.57938,11.20522,12.34422,24.40406,21.84019,39.59702,28.48693,15.19296,6.45748,31.52592,9.68572,48.99787,9.68572,10.44522,0,19.84607-.56975,28.20205-1.70875,8.54623-1.139,16.33246-2.94337,23.35969-5.41261,7.21648-2.46875,13.95884-5.60236,20.22558-9.40085,6.45698-3.98824,12.81885-8.8311,19.08608-14.52809,1.89949-1.70974,3.89312-3.03899,5.98236-3.98824,2.08875-1.1395,4.36774-1.70875,6.83698-1.70875l-.00099-.00197Z"/>
  </g>
</svg>