<?xml version="1.0" encoding="UTF-8"?>
<svg id="_レイヤー_2" data-name="レイヤー 2" xmlns="http://www.w3.org/2000/svg" viewBox="0 0 249.008 58.992">
  <defs>
    <style>
      .cls-1 {
        fill: none;
      }

      .cls-2 {
        fill: #646464;
      }
    </style>
  </defs>
  <g id="_レイヤー_1-2" data-name=" レイヤー 1">
    <g>
      <g>
        <path class="cls-2" d="M41.173,38.572v4.673h-18.308V15.746h5.214v22.826h13.094Z"/>
        <path class="cls-2" d="M45.689,18.257c0-1.506,1.197-2.703,2.704-2.703,1.468,0,2.665,1.197,2.665,2.703,0,1.468-1.197,2.665-2.665,2.665-1.506,0-2.704-1.197-2.704-2.665ZM45.959,23.316h4.866v19.929h-4.866v-19.929Z"/>
        <path class="cls-2" d="M63.608,21.888v1.429h4.094v3.708h-4.094v16.221h-4.828v-16.221h-3.09v-3.708h3.09v-1.506c0-3.515,1.738-6.18,6.527-6.18.773,0,1.816.039,2.512.116v3.746h-1.7c-1.738,0-2.51.85-2.51,2.395h-.001Z"/>
        <path class="cls-2" d="M101.28701,18.257c0-1.506,1.19701-2.703,2.703-2.703,1.468,0,2.66499,1.197,2.66499,2.703,0,1.468-1.19701,2.665-2.66499,2.665-1.505,0-2.703-1.197-2.703-2.665ZM101.558,23.316h4.86501v19.929h-4.86501v-19.929Z"/>
        <path class="cls-2" d="M234.70801,40.542c0,1.506-1.19699,2.703-2.703,2.703-1.46799,0-2.66599-1.197-2.66599-2.703,0-1.468,1.19699-2.665,2.66599-2.665,1.505,0,2.703,1.197,2.703,2.665ZM234.43799,35.483h-4.86499V15.554h4.86499s0,19.929,0,19.929Z"/>
        <path class="cls-2" d="M156.698,20.419h-8.806v22.826h-5.25101v-22.826h-8.806v-4.673h22.864v4.673h-.00099Z"/>
        <path class="cls-2" d="M220.24298,30.036v13.209h-4.86499v-12.397c0-2.55-1.27499-3.785-3.74701-3.785-2.12299,0-4.44101,1.468-4.44101,5.021v11.162h-4.866V15.747h4.866v10.235c1.31299-1.816,3.35999-3.128,6.064-3.128,4.17099,0,6.98999,2.434,6.98999,7.183h0l-.00098-.001Z"/>
        <path class="cls-2" d="M114.601,43.042c-1.24899-.523-2.224-1.259-2.92799-2.208-.703-.949-1.131-2.048-1.283-3.297l-.019-.172h4.657l.03799.172c.177.879.59801,1.561,1.26401,2.045.66499.484,1.60001.726,2.804.726.77299,0,1.43201-.095,1.97701-.287.545-.191.966-.471,1.26401-.841.297-.37.44701-.803.44701-1.3v-.02c0-.598-.203-1.086-.60899-1.463-.405-.376-1.134-.684-2.186-.927l-3.34599-.745c-1.28101-.293-2.351-.694-3.213-1.204s-1.508-1.144-1.939-1.902-.647-1.641-.647-2.647v-.02c0-1.236.33501-2.319,1.007-3.249s1.616-1.657,2.83299-2.179,2.629-.783,4.239-.783c1.673,0,3.105.28,4.29601.841,1.192.561,2.11301,1.313,2.767,2.256.65199.943,1.004,2.001,1.05499,3.173l.019.211h-4.411l-.019-.153c-.10201-.815-.46899-1.487-1.10201-2.017-.634-.529-1.502-.794-2.605-.794-.69701,0-1.302.102-1.815.306s-.907.491-1.179.86c-.27299.37-.409.803-.409,1.3v.02c0,.382.095.726.285,1.032s.494.57.912.793c.41901.223.976.417,1.673.583l3.34599.746c2.091.471,3.58,1.144,4.467,2.017s1.33,2.042,1.33,3.508v.02c0,1.274-.36099,2.392-1.084,3.355-.722.962-1.72099,1.708-2.995,2.237s-2.73399.793-4.382.793c-1.76199,0-3.267-.261-4.515-.783h.00101l.00496-.003Z"/>
        <g>
          <path class="cls-2" d="M85.122,24.009c-1.401-.848-3.058-1.271-4.97099-1.271-1.92599,0-3.59599.439-5.009,1.319s-2.509,2.113-3.289,3.699-1.16901,3.444-1.16901,5.572v.02c0,2.141.386,3.995,1.16,5.562.77299,1.568,1.88499,2.779,3.336,3.632,1.452.854,3.185,1.281,5.19901,1.281,1.30499,0,2.47099-.175,3.498-.525,1.02699-.35,1.914-.825,2.662-1.424s1.343-1.271,1.787-2.017c.44299-.745.748-1.507.912-2.284l.03799-.21h-4.411l-.03799.134c-.15199.459-.42101.885-.808,1.281-.386.395-.87801.717-1.47301.965-.595.249-1.286.373-2.07201.373-1.05299,0-1.95799-.232-2.718-.698-.75999-.465-1.347-1.134-1.759-2.007-.354-.752-.547-1.646-.59599-2.667h14.084v-1.815c0-2.038-.377-3.823-1.131-5.352-.754-1.529-1.83099-2.717-3.23199-3.565h0l-.00002-.003ZM77.708,27.144c.729-.452,1.562-.678,2.5-.678.925,0,1.742.22,2.452.659.71001.44,1.267,1.1,1.673,1.979.25.543.414,1.181.509,1.893h-9.35699c.099-.679.263-1.297.51199-1.836.412-.892.98199-1.564,1.711-2.017h0Z"/>
          <path class="cls-2" d="M175.182,32.926c0-2.038-.377-3.823-1.131-5.352-.754-1.529-1.832-2.717-3.23199-3.565-1.401-.848-3.058-1.271-4.97099-1.271-1.927,0-3.59599.439-5.009,1.319s-2.509,2.113-3.289,3.699c-.78,1.586-1.16901,3.444-1.16901,5.572v.02c0,2.141.386,3.995,1.16,5.562.77299,1.568,1.88499,2.779,3.336,3.632,1.452.854,3.185,1.281,5.19901,1.281,1.30499,0,2.47099-.175,3.498-.525,1.02699-.35,1.914-.825,2.662-1.424s1.343-1.271,1.787-2.017c.44299-.745.748-1.507.912-2.284l.03799-.21h-4.411l-.03799.134c-.15199.459-.42101.885-.808,1.281-.386.395-.87801.717-1.47301.965s-1.286.373-2.07201.373c-1.05299,0-1.95799-.232-2.718-.698-.75999-.465-1.347-1.134-1.759-2.007-.354-.752-.547-1.646-.59599-2.667h14.084v-1.815h0l-.00002-.00299ZM163.405,27.144c.729-.452,1.562-.678,2.5-.678.925,0,1.742.22,2.452.659.71001.44,1.267,1.1,1.673,1.979.25.543.414,1.181.509,1.893h-9.35699c.099-.679.263-1.297.51199-1.836.412-.892.98199-1.564,1.711-2.017h0Z"/>
        </g>
        <path class="cls-2" d="M183.282,42.541c-1.457-.853-2.582-2.071-3.375-3.651-.79201-1.58-1.188-3.453-1.188-5.62v-.02c0-2.153.399-4.017,1.198-5.591.799-1.573,1.923-2.787,3.375-3.641,1.451-.854,3.15199-1.281,5.104-1.281,1.774,0,3.308.341,4.601,1.023,1.293.682,2.30701,1.584,3.04201,2.705s1.15399,2.358,1.255,3.708v.134h-4.44901l-.03799-.153c-.19-.981-.64999-1.819-1.37801-2.513-.729-.695-1.72099-1.042-2.97501-1.042-.989,0-1.854.271-2.595.813s-1.315,1.309-1.72,2.303c-.40601.994-.60899,2.185-.60899,3.574v.019c0,1.402.20599,2.6.618,3.594.412.994.989,1.755,1.73,2.284s1.606.793,2.595.793c1.20399,0,2.17599-.328,2.918-.984.742-.656,1.22-1.513,1.436-2.571l.03799-.172h4.46701l-.01901.134c-.12601,1.402-.57001,2.663-1.33,3.785-.75999,1.121-1.78101,2.01-3.061,2.667-1.28.656-2.769.984-4.467.984-1.99001,0-3.713-.427-5.17101-1.281h-.00198Z"/>
      </g>
      <rect class="cls-1" width="249.008" height="58.992"/>
    </g>
  </g>
</svg>