<?xml version="1.0" encoding="UTF-8"?>
<svg xmlns="http://www.w3.org/2000/svg" version="1.1" viewBox="0 0 59 59">
  <!-- Generator: Adobe Illustrator 29.2.1, SVG Export Plug-In . SVG Version: 2.1.0 Build 116)  -->
  <defs>
    <style>
      .st0 {
        fill: #00aa2d;
      }

      .st1 {
        fill: #ffc300;
      }

      .st2 {
        fill: #005fff;
      }

      .st3 {
        fill: red;
      }
    </style>
  </defs>
  <g id="_レイヤー_6" data-name="レイヤー_6">
    <path class="st3" d="M29.5,0C13.2,0,0,13.2,0,29.5h29.5V0Z"/>
  </g>
  <g id="_レイヤー_5" data-name="レイヤー_5">
    <path class="st2" d="M29.5,59c16.3,0,29.5-13.2,29.5-29.5h-29.5v29.5Z"/>
  </g>
  <g id="_レイヤー_4" data-name="レイヤー_4">
    <path class="st1" d="M9.8,29.5c0,10.9,8.8,19.7,19.7,19.7v-19.7s-19.7,0-19.7,0Z"/>
  </g>
  <g id="_レイヤー_3" data-name="レイヤー_3">
    <path class="st0" d="M29.5,29.5v19.7c5.4,0,10.3-2.2,13.9-5.8l-13.9-13.9h0s0,0,0,0Z"/>
  </g>
  <g id="_レイヤー_2" data-name="レイヤー_2">
    <path class="st1" d="M29.5,29.5l16.2-16.2c-4.5-4.5-10.4-6.7-16.2-6.7v22.9s0,0,0,0Z"/>
  </g>
  <g id="_レイヤー_1" data-name="レイヤー_1">
    <path class="st2" d="M29.5,13.1c-9.1,0-16.4,7.3-16.4,16.4h16.4V13.1Z"/>
  </g>
</svg>