<?xml version="1.0" encoding="UTF-8" standalone="no"?>
<svg
   xmlns:dc="http://purl.org/dc/elements/1.1/"
   xmlns:cc="http://creativecommons.org/ns#"
   xmlns:rdf="http://www.w3.org/1999/02/22-rdf-syntax-ns#"
   xmlns:svg="http://www.w3.org/2000/svg"
   xmlns="http://www.w3.org/2000/svg"
   width="58.37656mm"
   height="17.03517mm"
   viewBox="0 0 58.37656 17.03517"
   version="1.1"
   id="svg8">
  <defs
     id="defs2" />
  <metadata
     id="metadata5">
    <rdf:RDF>
      <cc:Work
         rdf:about="">
        <dc:format>image/svg+xml</dc:format>
        <dc:type
           rdf:resource="http://purl.org/dc/dcmitype/StillImage" />
        <dc:title></dc:title>
      </cc:Work>
    </rdf:RDF>
  </metadata>
  <g
     id="layer1"
     transform="translate(-79.41859,-118.0643)">
    <path
       id="path4489"
       style="font-style:normal;font-variant:normal;font-weight:bold;font-stretch:normal;font-size:17.63888931px;line-height:125%;font-family:Lato;-inkscape-font-specification:Lato;letter-spacing:0px;word-spacing:0px;fill:#ff4c4c;fill-opacity:1;stroke:none;stroke-width:0.26458332px;stroke-linecap:butt;stroke-linejoin:miter;stroke-opacity:1"
       d="m 87.821507,127.66666 q 0.14993,0.28222 0.273402,0.5909 0.132292,0.29987 0.255764,0.60855 0.123473,-0.3175 0.255764,-0.62618 0.132292,-0.30869 0.282222,-0.59091 l 3.774723,-7.06437 q 0.07055,-0.13229 0.141111,-0.21167 0.07938,-0.0794 0.167569,-0.11465 0.09701,-0.0353 0.211667,-0.0441 0.114653,-0.009 0.273403,-0.009 h 1.790347 v 12.75292 h -2.090208 v -8.23736 q 0,-0.22931 0.0088,-0.50271 0.01764,-0.2734 0.0441,-0.55563 l -3.854097,7.23195 q -0.132292,0.24694 -0.343958,0.38805 -0.211667,0.1323 -0.493889,0.1323 h -0.32632 q -0.282222,0 -0.493889,-0.1323 -0.211666,-0.14111 -0.343958,-0.38805 l -3.907014,-7.2584 q 0.03528,0.29104 0.0441,0.57326 0.01764,0.2734 0.01764,0.51153 v 8.23736 H 81.41859 v -12.75292 h 1.790347 q 0.15875,0 0.273403,0.009 0.114653,0.009 0.202847,0.0441 0.09701,0.0353 0.176389,0.11465 0.07937,0.0794 0.149931,0.21167 z" />
    <path
       id="path4491"
       style="font-style:normal;font-variant:normal;font-weight:bold;font-stretch:normal;font-size:17.63888931px;line-height:125%;font-family:Lato;-inkscape-font-specification:Lato;letter-spacing:0px;word-spacing:0px;fill:#0085ff;fill-opacity:1;stroke:none;stroke-width:0.26458332px;stroke-linecap:butt;stroke-linejoin:miter;stroke-opacity:1"
       d="m 102.95016,131.04451 q 0.68792,0 1.2259,-0.22931 0.54681,-0.2293 0.91723,-0.64382 0.37923,-0.41451 0.57326,-1.00541 0.20285,-0.59091 0.20285,-1.32292 v -7.63764 h 2.37243 v 7.63764 q 0,1.13771 -0.37042,2.10785 -0.3616,0.96132 -1.04951,1.66687 -0.68792,0.69674 -1.66688,1.09361 -0.97896,0.38806 -2.20486,0.38806 -1.2259,0 -2.20486,-0.38806 -0.978958,-0.39687 -1.666875,-1.09361 -0.679097,-0.70555 -1.049514,-1.66687 -0.361597,-0.97014 -0.361597,-2.10785 v -7.63764 h 2.372426 v 7.62882 q 0,0.73201 0.19403,1.32292 0.20285,0.5909 0.57327,1.01423 0.37041,0.41452 0.9084,0.64382 0.5468,0.22931 1.23472,0.22931 z" />
    <path
       id="path4493"
       style="font-style:normal;font-variant:normal;font-weight:bold;font-stretch:normal;font-size:17.63888931px;line-height:125%;font-family:Lato;-inkscape-font-specification:Lato;letter-spacing:0px;word-spacing:0px;fill:#7dc600;fill-opacity:1;stroke:none;stroke-width:0.26458332px;stroke-linecap:butt;stroke-linejoin:miter;stroke-opacity:1"
       d="m 117.50252,122.52493 q -0.097,0.19402 -0.2293,0.2734 -0.12348,0.0794 -0.29987,0.0794 -0.17638,0 -0.39687,-0.13229 -0.22049,-0.14111 -0.52035,-0.30868 -0.29986,-0.16757 -0.70555,-0.29986 -0.39688,-0.14111 -0.94368,-0.14111 -0.49389,0 -0.86431,0.12347 -0.3616,0.11465 -0.61736,0.32632 -0.24695,0.21167 -0.37042,0.51153 -0.12347,0.29104 -0.12347,0.64382 0,0.44979 0.24694,0.74965 0.25577,0.29986 0.67028,0.51153 0.41452,0.21166 0.94368,0.37923 0.52917,0.16757 1.07598,0.3616 0.55562,0.18521 1.08479,0.44097 0.52916,0.24695 0.94368,0.635 0.41451,0.37924 0.66146,0.93486 0.25576,0.55563 0.25576,1.34938 0,0.86431 -0.29986,1.62278 -0.29104,0.74965 -0.86431,1.31409 -0.56444,0.55563 -1.38465,0.88195 -0.82021,0.3175 -1.87854,0.3175 -0.60854,0 -1.19945,-0.12347 -0.5909,-0.11466 -1.1377,-0.33514 -0.53799,-0.22049 -1.01424,-0.52917 -0.46743,-0.30868 -0.83785,-0.68792 l 0.68792,-1.1377 q 0.097,-0.12348 0.2293,-0.20285 0.14112,-0.0882 0.30869,-0.0882 0.22048,0 0.47625,0.18521 0.25576,0.17639 0.59972,0.39688 0.35278,0.22048 0.82021,0.40569 0.47625,0.17639 1.1377,0.17639 1.01424,0 1.56987,-0.47625 0.55562,-0.48507 0.55562,-1.38465 0,-0.50271 -0.25576,-0.82021 -0.24695,-0.3175 -0.66146,-0.52917 -0.41452,-0.22048 -0.94368,-0.37041 -0.52917,-0.14993 -1.07597,-0.32632 -0.54681,-0.17639 -1.07598,-0.42334 -0.52916,-0.24694 -0.94368,-0.64382 -0.41451,-0.39687 -0.67028,-0.98777 -0.24694,-0.59973 -0.24694,-1.47285 0,-0.69674 0.2734,-1.35819 0.28223,-0.66146 0.81139,-1.17299 0.53799,-0.51153 1.3141,-0.82021 0.77611,-0.30868 1.77271,-0.30868 1.12889,0 2.08139,0.35278 0.9525,0.35278 1.62277,0.98778 z" />
    <path
       id="path4495"
       style="font-style:normal;font-variant:normal;font-weight:bold;font-stretch:normal;font-size:17.63888931px;line-height:125%;font-family:Lato;-inkscape-font-specification:Lato;letter-spacing:0px;word-spacing:0px;fill:#fac800;fill-opacity:1;stroke:none;stroke-width:0.26458332px;stroke-linecap:butt;stroke-linejoin:miter;stroke-opacity:1"
       d="m 122.81376,132.95833 h -2.38125 v -12.75292 h 2.38125 z" />
    <path
       id="path4497"
       style="font-style:normal;font-variant:normal;font-weight:bold;font-stretch:normal;font-size:17.63888931px;line-height:125%;font-family:Lato;-inkscape-font-specification:Lato;letter-spacing:0px;word-spacing:0px;fill:#ff8b00;fill-opacity:1;stroke:none;stroke-width:0.26458332px;stroke-linecap:butt;stroke-linejoin:miter;stroke-opacity:1"
       d="m 134.4546,129.9509 q 0.19402,0 0.33513,0.14993 l 0.93487,1.01423 q -0.77612,0.96132 -1.91382,1.47285 -1.12889,0.51153 -2.71639,0.51153 -1.41993,0 -2.55764,-0.48507 -1.12889,-0.48507 -1.93146,-1.34938 -0.80257,-0.8643 -1.23472,-2.06375 -0.42334,-1.19944 -0.42334,-2.61937 0,-1.43757 0.47625,-2.62819 0.47625,-1.19945 1.34056,-2.06375 0.86431,-0.86431 2.06375,-1.34056 1.20826,-0.48507 2.66347,-0.48507 1.41993,0 2.47827,0.45861 1.06715,0.44979 1.82562,1.19945 l -0.79375,1.10243 q -0.0705,0.10583 -0.18521,0.1852 -0.10583,0.0794 -0.29986,0.0794 -0.20285,0 -0.41451,-0.15875 -0.21167,-0.15875 -0.53799,-0.34396 -0.32632,-0.18521 -0.82903,-0.34396 -0.49388,-0.15875 -1.26118,-0.15875 -0.89958,0 -1.65805,0.3175 -0.74966,0.30868 -1.29646,0.89077 -0.53799,0.58208 -0.84667,1.41993 -0.29986,0.82903 -0.29986,1.86972 0,1.07597 0.29986,1.91382 0.30868,0.83785 0.82903,1.41111 0.52035,0.57326 1.2259,0.88194 0.70556,0.29987 1.51695,0.29987 0.48507,0 0.87312,-0.0529 0.39688,-0.0529 0.7232,-0.16757 0.33514,-0.11465 0.62618,-0.29104 0.29986,-0.18521 0.5909,-0.44979 0.0882,-0.0794 0.18521,-0.12348 0.097,-0.0529 0.21167,-0.0529 z" />
  </g>
</svg>
