<?xml version="1.0" encoding="UTF-8"?>
<svg id="svg8" xmlns="http://www.w3.org/2000/svg" xmlns:svg="http://www.w3.org/2000/svg" xmlns:rdf="http://www.w3.org/1999/02/22-rdf-syntax-ns#" xmlns:dc="http://purl.org/dc/elements/1.1/" xmlns:cc="http://creativecommons.org/ns#" version="1.1" viewBox="0 0 165.5 48.3">
  <!-- Generator: Adobe Illustrator 29.2.1, SVG Export Plug-In . SVG Version: 2.1.0 Build 116)  -->
  <defs>
    <style>
      .st0 {
        fill: #00aa2d;
      }

      .st1 {
        fill: #ff8c00;
      }

      .st2 {
        fill: #ffc300;
      }

      .st3 {
        fill: #005fff;
      }

      .st4 {
        fill: red;
      }
    </style>
  </defs>
  <g id="layer1">
    <path id="path4489" class="st4" d="M23.8,27.2c.3.5.5,1.1.8,1.7.3.6.5,1.1.7,1.7.2-.6.5-1.2.7-1.8.3-.6.5-1.1.8-1.7l10.7-20c.1-.3.3-.5.4-.6.2-.2.3-.3.5-.3.2,0,.4-.1.6-.1.2,0,.5,0,.8,0h5.1v36.1h-5.9v-23.3c0-.4,0-.9,0-1.4,0-.5,0-1,.1-1.6l-10.9,20.5c-.3.5-.6.8-1,1.1-.4.3-.9.4-1.4.4h-.9c-.5,0-1-.1-1.4-.4-.4-.3-.7-.6-1-1.1L11.4,15.8c0,.5.1,1.1.1,1.6,0,.5,0,1,0,1.5v23.4h-5.9V6.1h5.1c.3,0,.6,0,.8,0,.2,0,.4,0,.6.1.2,0,.3.2.5.3.1.2.3.4.4.6l10.8,20.1Z"/>
    <path id="path4491" class="st3" d="M66.7,36.8c1.3,0,2.5-.2,3.5-.7,1-.4,1.9-1,2.6-1.8.7-.8,1.3-1.7,1.6-2.9.4-1.1.6-2.4.6-3.8V6.1h6.7v21.7c0,2.1-.4,4.1-1.1,6-.7,1.8-1.7,3.4-3,4.7-1.3,1.3-2.9,2.3-4.7,3.1-1.8.7-3.9,1.1-6.2,1.1s-4.4-.4-6.2-1.1c-1.9-.8-3.4-1.8-4.7-3.1-1.3-1.3-2.3-2.9-3-4.7-.7-1.8-1-3.8-1-6V6.1h6.7v21.6c0,1.4.2,2.6.6,3.8.4,1.1.9,2.1,1.6,2.9.7.8,1.6,1.4,2.6,1.8,1,.4,2.2.7,3.5.7h0Z"/>
    <path id="path4493" class="st0" d="M108,12.6c-.2.4-.4.6-.6.8-.2.2-.5.2-.9.2-.3,0-.7-.1-1.1-.4-.4-.3-.9-.6-1.5-.9-.6-.3-1.2-.6-2-.8-.8-.3-1.6-.4-2.7-.4s-1.8.1-2.5.3c-.7.2-1.3.5-1.8.9-.5.4-.8.9-1.1,1.5-.2.5-.3,1.2-.3,1.8s.2,1.6.7,2.1c.5.6,1.1,1,1.9,1.5.8.4,1.7.8,2.7,1.1,1,.3,2,.7,3.1,1,1,.4,2.1.8,3.1,1.2,1,.5,1.9,1.1,2.7,1.8.8.7,1.4,1.6,1.9,2.6.5,1.1.7,2.3.7,3.8s-.3,3.2-.8,4.6c-.6,1.4-1.4,2.7-2.5,3.7-1.1,1.1-2.4,1.9-3.9,2.5-1.6.6-3.3.9-5.3.9s-2.3-.1-3.4-.4c-1.1-.2-2.2-.5-3.2-1-1-.4-2-.9-2.9-1.5-.9-.6-1.7-1.2-2.4-2l2-3.2c.2-.2.4-.4.6-.6.3-.2.6-.3.9-.3s.9.2,1.3.5c.5.3,1,.7,1.7,1.1.7.4,1.4.8,2.3,1.1.9.3,2,.5,3.2.5,1.9,0,3.4-.5,4.5-1.4,1-.9,1.6-2.2,1.6-3.9,0-1-.2-1.7-.7-2.3-.5-.6-1.1-1.1-1.9-1.5-.8-.4-1.7-.8-2.7-1-1-.3-2-.6-3.1-.9-1-.3-2.1-.7-3.1-1.2-1-.5-1.9-1.1-2.7-1.8-.8-.8-1.4-1.7-1.9-2.8-.5-1.1-.7-2.5-.7-4.2s.3-2.6.8-3.8c.5-1.2,1.3-2.4,2.3-3.3,1-1,2.3-1.7,3.7-2.3,1.5-.6,3.1-.9,5-.9,2.1,0,4.1.3,5.9,1,1.8.7,3.3,1.6,4.6,2.8l-1.7,3.2Z"/>
    <path id="path4495" class="st2" d="M123,42.2h-6.7V6.1h6.7v36.2Z"/>
    <path id="path4497" class="st1" d="M156,33.7c.4,0,.7.1.9.4l2.7,2.9c-1.5,1.8-3.3,3.2-5.4,4.2-2.1,1-4.7,1.5-7.7,1.5s-5.1-.5-7.2-1.4c-2.1-.9-4-2.2-5.5-3.8s-2.7-3.6-3.5-5.9c-.8-2.3-1.2-4.7-1.2-7.4s.5-5.2,1.3-7.4c.9-2.3,2.2-4.2,3.8-5.9s3.6-2.9,5.9-3.8c2.3-.9,4.8-1.4,7.5-1.4s5,.4,7,1.3c2,.8,3.7,2,5.2,3.4l-2.2,3.1c-.1.2-.3.4-.5.5-.2.2-.5.2-.9.2-.4,0-.8-.2-1.2-.5-.4-.3-.9-.6-1.5-1-.6-.3-1.4-.7-2.3-1-.9-.3-2.1-.5-3.6-.5-1.7,0-3.3.3-4.7.9-1.4.6-2.6,1.4-3.7,2.5-1,1.1-1.8,2.4-2.4,4-.6,1.6-.9,3.3-.8,5.3,0,2,.3,3.8.8,5.4.6,1.6,1.4,2.9,2.4,4,1,1.1,2.1,1.9,3.5,2.5,1.3.6,2.8.9,4.3.9s1.7,0,2.5-.1c.8,0,1.4-.3,2.1-.5.6-.2,1.2-.5,1.8-.8.6-.4,1.1-.8,1.7-1.3.2-.2.3-.3.5-.4.2-.1.4-.1.6-.1h0Z"/>
  </g>
</svg>