<?xml version="1.0" encoding="UTF-8"?>
<svg id="_レイヤー_2" data-name="レイヤー 2" xmlns="http://www.w3.org/2000/svg" viewBox="0 0 380.92499 85.03937">
  <defs>
    <style>
      .cls-1 {
        fill: #fff;
      }
    </style>
  </defs>
  <g id="Layer_1" data-name="Layer 1">
    <g>
      <path class="cls-1" d="M118.94623,13.27899c-1.39716-5.22681-5.51361-9.34332-10.74054-10.74048C98.73175,0,60.74237,0,60.74237,0c0,0-37.98932,0-47.46332,2.53851C8.05219,3.93567,3.93567,8.05219,2.53851,13.27899,0,22.75299,0,42.51965,0,42.51965c0,0,0,19.76666,2.53851,29.24066,1.39716,5.22687,5.51367,9.34332,10.74054,10.74048,9.474,2.53857,47.46332,2.53857,47.46332,2.53857,0,0,37.98938,0,47.46332-2.53857,5.22693-1.39716,9.34338-5.51361,10.74054-10.74048,2.53851-9.474,2.53851-29.24066,2.53851-29.24066,0,0,0-19.76666-2.53851-29.24066ZM48.59393,60.74237V24.29694l31.56128,18.22327-31.56128,18.22217Z"/>
      <g>
        <path class="cls-1" d="M176.33552,77.3637c-2.40414-1.6205-4.11301-4.14035-5.12564-7.55809-1.01409-3.41677-1.52041-7.96285-1.52041-13.63972v-7.73191c0-5.734.57809-10.33867,1.73719-13.81354,1.15813-3.47487,2.96758-6.0079,5.42982-7.60155,2.46126-1.59218,5.69054-2.389,9.68686-2.389,3.93822,0,7.09426.81147,9.46959,2.43246,2.37435,1.62196,4.11154,4.15646,5.21255,7.60155,1.09954,3.44655,1.65077,8.03609,1.65077,13.77008v7.73191c0,5.67687-.5361,10.23809-1.60732,13.68318-1.07219,3.44655-2.80987,5.96591-5.21255,7.55809-2.40414,1.59218-5.66173,2.389-9.77377,2.389-4.22824,0-7.54442-.81147-9.9471-2.43246ZM189.80143,69.02344c.665-1.73719.99896-4.5744.99896-8.5136v-16.59363c0-3.8225-.33396-6.61626-.99896-8.38372-.66646-1.766-1.83972-2.64973-3.51881-2.64973-1.62196,0-2.76642.88373-3.43141,2.64973-.66646,1.76746-.99896,4.56122-.99896,8.38372v16.59363c0,3.93919.31736,6.77641.9555,8.5136.63668,1.73768,1.79431,2.60627,3.47487,2.60627,1.67909,0,2.85235-.86859,3.51881-2.60627Z"/>
        <path class="cls-1" d="M360.85642,56.29236v2.69329c0,3.41802.09962,5.98092.30376,7.6887.20218,1.70925.62119,2.95408,1.25996,3.73594.63682.78186,1.62037,1.17304,2.95359,1.17304,1.79423,0,3.02586-.69542,3.69198-2.08529.66514-1.38987,1.0275-3.70615,1.08611-6.95031l10.33853.60801c.05763.46443.08693,1.10125.08693,1.91143,0,4.92362-1.34689,8.60096-4.03969,11.03346-2.6928,2.43251-6.50199,3.64901-11.42464,3.64901-5.90717,0-10.04942-1.85283-12.42382-5.56044-2.37537-3.70566-3.56208-9.43947-3.56208-17.20142v-9.29638c0-7.99246,1.23066-13.82687,3.69296-17.50567,2.46132-3.67733,6.67487-5.51698,12.64065-5.51698,4.11197,0,7.26774.75354,9.46925,2.25914,2.20054,1.50658,3.74961,3.85217,4.64819,7.03675.8976,3.18605,1.34689,7.58859,1.34689,13.20568v9.12203h-20.06857ZM362.37619,33.87821c-.60752.75305-1.01383,1.9842-1.21601,3.69198-.20413,1.70925-.30376,4.30048-.30376,7.77563v3.82286h8.77383v-3.82286c0-3.41655-.11623-6.00826-.34673-7.77563-.23246-1.7659-.65147-3.01072-1.25996-3.73545-.60849-.72375-1.55005-1.08611-2.82368-1.08611-1.27461,0-2.21519.3775-2.82368,1.12957Z"/>
        <path class="cls-1" d="M147.1416,55.29528l-13.63972-49.25944h11.90204l4.778,22.32762c1.21672,5.50305,2.11363,10.19415,2.69318,14.07378h.34763c.40476-2.78009,1.30314-7.4414,2.69318-13.98687l4.95182-22.41453h11.90253l-13.81354,49.25944v23.63194h-11.81514v-23.63194Z"/>
        <path class="cls-1" d="M241.58605,25.67176v53.25526h-9.38268l-1.0429-6.51568h-.26024c-2.54964,4.9235-6.37214,7.38428-11.46799,7.38428-3.53346,0-6.13973-1.15764-7.81882-3.47487-1.68055-2.31576-2.51936-5.93613-2.51936-10.85963V25.67176h11.98895v39.09458c0,2.37533.26072,4.06955.78169,5.08218.52145,1.01409,1.39004,1.52041,2.60627,1.52041,1.0429,0,2.04186-.31785,2.99736-.95599.95599-.63668,1.66444-1.44668,2.12877-2.43246V25.67176h11.98895Z"/>
        <path class="cls-1" d="M303.08201,25.67176v53.25526h-9.38268l-1.0429-6.51568h-.26024c-2.54964,4.9235-6.37214,7.38428-11.46799,7.38428-3.53346,0-6.13973-1.15764-7.81882-3.47487-1.68055-2.31576-2.51936-5.93613-2.51936-10.85963V25.67176h11.98895v39.09458c0,2.37533.26072,4.06955.78169,5.08218.52145,1.01409,1.39004,1.52041,2.60627,1.52041,1.0429,0,2.04186-.31785,2.99736-.95599.95599-.63668,1.66444-1.44668,2.12877-2.43246V25.67176h11.98895Z"/>
        <path class="cls-1" d="M274.16428,15.68075h-11.90204v63.2463h-11.72823V15.68075h-11.90204V6.03734h35.53232v9.6434Z"/>
        <path class="cls-1" d="M342.76117,34.18479c-.7251-3.35815-1.89783-5.79065-3.5188-7.29736-1.62195-1.50525-3.85229-2.25867-6.68945-2.25867-2.20154,0-4.25708.62305-6.16809,1.86768-1.9115,1.24597-3.38843,2.88208-4.43079,4.90881h-.08801l.0011-28.06165h-11.55444v75.58289h9.90356l1.21631-5.0387h.26074c.92566,1.79578,2.31567,3.21411,4.17004,4.25708,1.85291,1.04236,3.90942,1.56335,6.16858,1.56335,4.05298,0,7.03662-1.86755,8.94812-5.60315,1.91101-3.73608,2.86707-9.57019,2.86707-17.50574v-8.42712c0-5.96448-.36279-10.6272-1.08594-13.98743ZM331.77118,55.90749c0,3.8811-.16016,6.92187-.47803,9.12183-.31885,2.20215-.85486,3.76587-1.6073,4.69165-.7533.92725-1.76746,1.39001-3.04028,1.39001-.98572,0-1.89783-.23083-2.73669-.69519-.84021-.46289-1.52039-1.15771-2.04175-2.08484v-30.2334c.40466-1.44666,1.09949-2.63452,2.08521-3.56177.98389-.92566,2.05505-1.39001,3.21423-1.39001,1.21619,0,2.1571.47803,2.82349,1.43347.66504.95544,1.12927,2.56287,1.39001,4.8219.26074,2.25867.39111,5.4729.39111,9.64294v6.8634Z"/>
      </g>
    </g>
  </g>
</svg>