<svg xmlns="http://www.w3.org/2000/svg" version="1.1" xmlns:xlink="http://www.w3.org/1999/xlink" xmlns:svgjs="http://svgjs.dev/svgjs" width="1080" height="1080"><svg id="SvgjsSvg1003" data-name="レイヤー 1" xmlns="http://www.w3.org/2000/svg" viewBox="0 0 1080 1080">
  <defs>
    <style>
      .cls-1 {
        fill: #fff;
      }

      .cls-2 {
        fill: red;
      }
    </style>
  </defs>
  <rect class="cls-1" width="1080" height="1080"></rect>
  <path id="SvgjsPath1002" class="cls-2" d="M512.79002,597.7135c5.31724,10.00788,10.16453,20.48571,14.54308,31.43187,4.69145,10.63367,9.22664,21.42481,13.60519,32.37097,4.37855-11.25947,8.91375-22.36229,13.60519-33.30845,4.69145-10.94698,9.69579-21.42481,15.01222-31.43268l200.79102-375.77869c2.50197-4.69145,5.00434-8.4446,7.50631-11.25947,2.81487-2.81568,5.78598-4.8485,8.91375-6.09847,3.43985-1.25159,7.19301-2.03404,11.25947-2.34572,4.06605-.31939,8.91375-.47888,14.54308-.47888h95.23472v678.37246h-111.18563v-438.1741c0-8.13211.15625-17.04504.46793-26.74083.62539-9.69579,1.40743-19.54701,2.34572-29.55611l-205.01292,384.69284c-4.69145,8.75709-10.79032,15.63761-18.29623,20.64155-7.50631,4.69145-16.26341,7.03717-26.27169,7.03717h-17.35794c-10.00788,0-18.76538-2.34572-26.27169-7.03717-7.50591-5.00394-13.60479-11.88445-18.29623-20.64155l-207.82779-386.09987c1.25119,10.32077,2.03323,20.48571,2.34572,30.49358.6258,9.69538.93829,18.76578.93829,27.20998v438.17451h-111.18563V200.81357h95.23472c5.62973,0,10.47743.15949,14.54308.47888,4.06605.31899,7.66256,1.10103,10.79032,2.34572,3.44026,1.252,6.56762,3.28442,9.38289,6.09847,2.81446,2.81568,5.47308,6.56884,7.97546,11.25947l202.6676,376.71739Z"></path>
</svg><style>@media (prefers-color-scheme: light) { :root { filter: none; } }
@media (prefers-color-scheme: dark) { :root { filter: none; } }
</style></svg>